<svg xmlns="http://www.w3.org/2000/svg" viewBox="0 0 128 128" width="128" height="128">
  <defs>
    <radialGradient id="vc-bg" cx="50%" cy="50%" r="50%">
      <stop offset="0%" stop-color="#0c0c18"/>
      <stop offset="100%" stop-color="#050508"/>
    </radialGradient>
    <filter id="vc-glow">
      <feGaussianBlur stdDeviation="3" result="blur"/>
      <feMerge>
        <feMergeNode in="blur"/>
        <feMergeNode in="SourceGraphic"/>
      </feMerge>
    </filter>
    <filter id="vc-glow-strong">
      <feGaussianBlur stdDeviation="5" result="blur"/>
      <feMerge>
        <feMergeNode in="blur"/>
        <feMergeNode in="SourceGraphic"/>
      </feMerge>
    </filter>
  </defs>
  <!-- Background circle -->
  <circle cx="64" cy="64" r="62" fill="url(#vc-bg)" stroke="#8b6aff22" stroke-width="1.5"/>
  <!-- Circuit traces (lines) -->
  <g stroke="#3dd8d8" stroke-width="1.2" stroke-linecap="round" opacity="0.6" filter="url(#vc-glow)">
    <line x1="32" y1="36" x2="64" y2="28"/>
    <line x1="64" y1="28" x2="96" y2="40"/>
    <line x1="32" y1="36" x2="40" y2="64"/>
    <line x1="64" y1="28" x2="64" y2="56"/>
    <line x1="96" y1="40" x2="88" y2="64"/>
    <line x1="40" y1="64" x2="64" y2="56"/>
    <line x1="64" y1="56" x2="88" y2="64"/>
    <line x1="40" y1="64" x2="48" y2="88"/>
    <line x1="64" y1="56" x2="64" y2="84"/>
    <line x1="88" y1="64" x2="80" y2="88"/>
    <line x1="48" y1="88" x2="64" y2="84"/>
    <line x1="64" y1="84" x2="80" y2="88"/>
    <line x1="48" y1="88" x2="64" y2="100"/>
    <line x1="80" y1="88" x2="64" y2="100"/>
  </g>
  <!-- Nodes -->
  <g filter="url(#vc-glow-strong)">
    <circle cx="32" cy="36" r="4" fill="#8b6aff"/>
    <circle cx="64" cy="28" r="5" fill="#8b6aff"/>
    <circle cx="96" cy="40" r="4" fill="#8b6aff"/>
    <circle cx="40" cy="64" r="3.5" fill="#3dd8d8"/>
    <circle cx="64" cy="56" r="5.5" fill="#8b6aff"/>
    <circle cx="88" cy="64" r="3.5" fill="#3dd8d8"/>
    <circle cx="48" cy="88" r="4" fill="#8b6aff"/>
    <circle cx="64" cy="84" r="3.5" fill="#3dd8d8"/>
    <circle cx="80" cy="88" r="4" fill="#8b6aff"/>
    <circle cx="64" cy="100" r="4.5" fill="#8b6aff"/>
  </g>
  <!-- Inner node highlights -->
  <g opacity="0.8">
    <circle cx="64" cy="28" r="2" fill="#c4b0ff"/>
    <circle cx="64" cy="56" r="2.5" fill="#c4b0ff"/>
    <circle cx="64" cy="100" r="2" fill="#c4b0ff"/>
  </g>
</svg>