<svg xmlns="http://www.w3.org/2000/svg" width="420" height="764" viewBox="0 0 420 764" style="background:#0a0e14;padding:8px">
  <text x="0" y="23" font-family="system-ui, sans-serif" font-size="12" fill="#c8ccd4">Synabrain Default</text>
  <rect x="160" y="4" width="40" height="28" rx="6" fill="#2dd4bf" />
  <rect x="204" y="4" width="40" height="28" rx="6" fill="#a855f7" />
  <rect x="248" y="4" width="40" height="28" rx="6" fill="#ec4899" />
  <rect x="292" y="4" width="40" height="28" rx="6" fill="#8b5cf6" />
  <rect x="336" y="4" width="40" height="28" rx="6" fill="#6366f1" />
  <rect x="380" y="4" width="40" height="28" rx="6" fill="#0d9488" />
  <text x="0" y="59" font-family="system-ui, sans-serif" font-size="12" fill="#c8ccd4">Martian Games</text>
  <rect x="160" y="40" width="40" height="28" rx="6" fill="#42f4c8" />
  <rect x="204" y="40" width="40" height="28" rx="6" fill="#8B5CF6" />
  <rect x="248" y="40" width="40" height="28" rx="6" fill="#FF6B00" />
  <rect x="292" y="40" width="40" height="28" rx="6" fill="#63B3ED" />
  <rect x="336" y="40" width="40" height="28" rx="6" fill="#FF7F32" />
  <rect x="380" y="40" width="40" height="28" rx="6" fill="#38C172" />
  <text x="0" y="95" font-family="system-ui, sans-serif" font-size="12" fill="#c8ccd4">Ocean Breeze</text>
  <rect x="160" y="76" width="40" height="28" rx="6" fill="#06b6d4" />
  <rect x="204" y="76" width="40" height="28" rx="6" fill="#6366f1" />
  <rect x="248" y="76" width="40" height="28" rx="6" fill="#8b5cf6" />
  <rect x="292" y="76" width="40" height="28" rx="6" fill="#4f46e5" />
  <rect x="336" y="76" width="40" height="28" rx="6" fill="#0ea5e9" />
  <rect x="380" y="76" width="40" height="28" rx="6" fill="#14b8a6" />
  <text x="0" y="131" font-family="system-ui, sans-serif" font-size="12" fill="#c8ccd4">Sunset Glow</text>
  <rect x="160" y="112" width="40" height="28" rx="6" fill="#f97316" />
  <rect x="204" y="112" width="40" height="28" rx="6" fill="#ec4899" />
  <rect x="248" y="112" width="40" height="28" rx="6" fill="#f43f5e" />
  <rect x="292" y="112" width="40" height="28" rx="6" fill="#e11d48" />
  <rect x="336" y="112" width="40" height="28" rx="6" fill="#fb7185" />
  <rect x="380" y="112" width="40" height="28" rx="6" fill="#fbbf24" />
  <text x="0" y="167" font-family="system-ui, sans-serif" font-size="12" fill="#c8ccd4">Forest Depths</text>
  <rect x="160" y="148" width="40" height="28" rx="6" fill="#10b981" />
  <rect x="204" y="148" width="40" height="28" rx="6" fill="#059669" />
  <rect x="248" y="148" width="40" height="28" rx="6" fill="#84cc16" />
  <rect x="292" y="148" width="40" height="28" rx="6" fill="#22c55e" />
  <rect x="336" y="148" width="40" height="28" rx="6" fill="#14b8a6" />
  <rect x="380" y="148" width="40" height="28" rx="6" fill="#047857" />
  <text x="0" y="203" font-family="system-ui, sans-serif" font-size="12" fill="#c8ccd4">Neon Nights</text>
  <rect x="160" y="184" width="40" height="28" rx="6" fill="#00ffff" />
  <rect x="204" y="184" width="40" height="28" rx="6" fill="#ff00ff" />
  <rect x="248" y="184" width="40" height="28" rx="6" fill="#ff1493" />
  <rect x="292" y="184" width="40" height="28" rx="6" fill="#9400d3" />
  <rect x="336" y="184" width="40" height="28" rx="6" fill="#00bfff" />
  <rect x="380" y="184" width="40" height="28" rx="6" fill="#00fa9a" />
  <text x="0" y="239" font-family="system-ui, sans-serif" font-size="12" fill="#c8ccd4">Minimal Mono</text>
  <rect x="160" y="220" width="40" height="28" rx="6" fill="#64748b" />
  <rect x="204" y="220" width="40" height="28" rx="6" fill="#475569" />
  <rect x="248" y="220" width="40" height="28" rx="6" fill="#94a3b8" />
  <rect x="292" y="220" width="40" height="28" rx="6" fill="#334155" />
  <rect x="336" y="220" width="40" height="28" rx="6" fill="#cbd5e1" />
  <rect x="380" y="220" width="40" height="28" rx="6" fill="#1e293b" />
  <text x="0" y="275" font-family="system-ui, sans-serif" font-size="12" fill="#c8ccd4">Studio Pro Light</text>
  <rect x="160" y="256" width="40" height="28" rx="6" fill="#3b82f6" />
  <rect x="204" y="256" width="40" height="28" rx="6" fill="#6b7280" />
  <rect x="248" y="256" width="40" height="28" rx="6" fill="#93c5fd" />
  <rect x="292" y="256" width="40" height="28" rx="6" fill="#4b5563" />
  <rect x="336" y="256" width="40" height="28" rx="6" fill="#60a5fa" />
  <rect x="380" y="256" width="40" height="28" rx="6" fill="#3b82f6" />
  <text x="0" y="311" font-family="system-ui, sans-serif" font-size="12" fill="#c8ccd4">Cyberpunk</text>
  <rect x="160" y="292" width="40" height="28" rx="6" fill="#f0abfc" />
  <rect x="204" y="292" width="40" height="28" rx="6" fill="#06b6d4" />
  <rect x="248" y="292" width="40" height="28" rx="6" fill="#e879f9" />
  <rect x="292" y="292" width="40" height="28" rx="6" fill="#0891b2" />
  <rect x="336" y="292" width="40" height="28" rx="6" fill="#67e8f9" />
  <rect x="380" y="292" width="40" height="28" rx="6" fill="#f0abfc" />
  <text x="0" y="347" font-family="system-ui, sans-serif" font-size="12" fill="#c8ccd4">Aurora Borealis</text>
  <rect x="160" y="328" width="40" height="28" rx="6" fill="#00d4aa" />
  <rect x="204" y="328" width="40" height="28" rx="6" fill="#a855f7" />
  <rect x="248" y="328" width="40" height="28" rx="6" fill="#f472b6" />
  <rect x="292" y="328" width="40" height="28" rx="6" fill="#7c3aed" />
  <rect x="336" y="328" width="40" height="28" rx="6" fill="#38bdf8" />
  <rect x="380" y="328" width="40" height="28" rx="6" fill="#2dd4bf" />
  <text x="0" y="383" font-family="system-ui, sans-serif" font-size="12" fill="#c8ccd4">Synthwave</text>
  <rect x="160" y="364" width="40" height="28" rx="6" fill="#00e5ff" />
  <rect x="204" y="364" width="40" height="28" rx="6" fill="#b24bf3" />
  <rect x="248" y="364" width="40" height="28" rx="6" fill="#ff2d95" />
  <rect x="292" y="364" width="40" height="28" rx="6" fill="#7b2ff7" />
  <rect x="336" y="364" width="40" height="28" rx="6" fill="#00b4d8" />
  <rect x="380" y="364" width="40" height="28" rx="6" fill="#01cdfe" />
  <text x="0" y="419" font-family="system-ui, sans-serif" font-size="12" fill="#c8ccd4">Midnight Depths</text>
  <rect x="160" y="400" width="40" height="28" rx="6" fill="#6366f1" />
  <rect x="204" y="400" width="40" height="28" rx="6" fill="#1e40af" />
  <rect x="248" y="400" width="40" height="28" rx="6" fill="#818cf8" />
  <rect x="292" y="400" width="40" height="28" rx="6" fill="#1e3a8a" />
  <rect x="336" y="400" width="40" height="28" rx="6" fill="#6366f1" />
  <rect x="380" y="400" width="40" height="28" rx="6" fill="#3b82f6" />
  <text x="0" y="455" font-family="system-ui, sans-serif" font-size="12" fill="#c8ccd4">Cherry Blossom</text>
  <rect x="160" y="436" width="40" height="28" rx="6" fill="#f472b6" />
  <rect x="204" y="436" width="40" height="28" rx="6" fill="#e11d48" />
  <rect x="248" y="436" width="40" height="28" rx="6" fill="#fb7185" />
  <rect x="292" y="436" width="40" height="28" rx="6" fill="#be123c" />
  <rect x="336" y="436" width="40" height="28" rx="6" fill="#fda4af" />
  <rect x="380" y="436" width="40" height="28" rx="6" fill="#f472b6" />
  <text x="0" y="491" font-family="system-ui, sans-serif" font-size="12" fill="#c8ccd4">Arctic Frost</text>
  <rect x="160" y="472" width="40" height="28" rx="6" fill="#67e8f9" />
  <rect x="204" y="472" width="40" height="28" rx="6" fill="#0ea5e9" />
  <rect x="248" y="472" width="40" height="28" rx="6" fill="#a5f3fc" />
  <rect x="292" y="472" width="40" height="28" rx="6" fill="#0284c7" />
  <rect x="336" y="472" width="40" height="28" rx="6" fill="#7dd3fc" />
  <rect x="380" y="472" width="40" height="28" rx="6" fill="#67e8f9" />
  <text x="0" y="527" font-family="system-ui, sans-serif" font-size="12" fill="#c8ccd4">Velvet Noir</text>
  <rect x="160" y="508" width="40" height="28" rx="6" fill="#c084fc" />
  <rect x="204" y="508" width="40" height="28" rx="6" fill="#7c2d8e" />
  <rect x="248" y="508" width="40" height="28" rx="6" fill="#e879a0" />
  <rect x="292" y="508" width="40" height="28" rx="6" fill="#581c87" />
  <rect x="336" y="508" width="40" height="28" rx="6" fill="#a855f7" />
  <rect x="380" y="508" width="40" height="28" rx="6" fill="#9333ea" />
  <text x="0" y="563" font-family="system-ui, sans-serif" font-size="12" fill="#c8ccd4">Void Circuit</text>
  <rect x="160" y="544" width="40" height="28" rx="6" fill="#3dd8d8" />
  <rect x="204" y="544" width="40" height="28" rx="6" fill="#8b6aff" />
  <rect x="248" y="544" width="40" height="28" rx="6" fill="#f06080" />
  <rect x="292" y="544" width="40" height="28" rx="6" fill="#5a8af0" />
  <rect x="336" y="544" width="40" height="28" rx="6" fill="#5a8af0" />
  <rect x="380" y="544" width="40" height="28" rx="6" fill="#3dd8a8" />
  <text x="0" y="599" font-family="system-ui, sans-serif" font-size="12" fill="#c8ccd4">Neon Decay</text>
  <rect x="160" y="580" width="40" height="28" rx="6" fill="#42f4c8" />
  <rect x="204" y="580" width="40" height="28" rx="6" fill="#b48eff" />
  <rect x="248" y="580" width="40" height="28" rx="6" fill="#ff2d6f" />
  <rect x="292" y="580" width="40" height="28" rx="6" fill="#5c8aff" />
  <rect x="336" y="580" width="40" height="28" rx="6" fill="#5c8aff" />
  <rect x="380" y="580" width="40" height="28" rx="6" fill="#42f4c8" />
  <text x="0" y="635" font-family="system-ui, sans-serif" font-size="12" fill="#c8ccd4">Ghost Protocol</text>
  <rect x="160" y="616" width="40" height="28" rx="6" fill="#5a9ce8" />
  <rect x="204" y="616" width="40" height="28" rx="6" fill="#8878b8" />
  <rect x="248" y="616" width="40" height="28" rx="6" fill="#d85858" />
  <rect x="292" y="616" width="40" height="28" rx="6" fill="#5a9ce8" />
  <rect x="336" y="616" width="40" height="28" rx="6" fill="#88c8ff" />
  <rect x="380" y="616" width="40" height="28" rx="6" fill="#50a8b8" />
  <text x="0" y="671" font-family="system-ui, sans-serif" font-size="12" fill="#c8ccd4">Plasma Drift</text>
  <rect x="160" y="652" width="40" height="28" rx="6" fill="#68b8d8" />
  <rect x="204" y="652" width="40" height="28" rx="6" fill="#e050a0" />
  <rect x="248" y="652" width="40" height="28" rx="6" fill="#f070a8" />
  <rect x="292" y="652" width="40" height="28" rx="6" fill="#7088d0" />
  <rect x="336" y="652" width="40" height="28" rx="6" fill="#7088d0" />
  <rect x="380" y="652" width="40" height="28" rx="6" fill="#60b890" />
  <text x="0" y="707" font-family="system-ui, sans-serif" font-size="12" fill="#c8ccd4">Acid Rain</text>
  <rect x="160" y="688" width="40" height="28" rx="6" fill="#68c030" />
  <rect x="204" y="688" width="40" height="28" rx="6" fill="#c0c0c0" />
  <rect x="248" y="688" width="40" height="28" rx="6" fill="#1a1a1a" />
  <rect x="292" y="688" width="40" height="28" rx="6" fill="#e0e0e0" />
  <rect x="336" y="688" width="40" height="28" rx="6" fill="#90e848" />
  <rect x="380" y="688" width="40" height="28" rx="6" fill="#48a8a0" />
  <text x="0" y="743" font-family="system-ui, sans-serif" font-size="12" fill="#c8ccd4">SG Martian</text>
  <rect x="160" y="724" width="40" height="28" rx="6" fill="#50ffdb" />
  <rect x="204" y="724" width="40" height="28" rx="6" fill="#9b6dff" />
  <rect x="248" y="724" width="40" height="28" rx="6" fill="#FF6B00" />
  <rect x="292" y="724" width="40" height="28" rx="6" fill="#70c4f0" />
  <rect x="336" y="724" width="40" height="28" rx="6" fill="#FF8533" />
  <rect x="380" y="724" width="40" height="28" rx="6" fill="#42e09a" />
</svg>